<?xml version="1.0" standalone="no"?>
<!DOCTYPE svg PUBLIC "-//W3C//DTD SVG 20010904//EN"
 "http://www.w3.org/TR/2001/REC-SVG-20010904/DTD/svg10.dtd">
<svg version="1.0" xmlns="http://www.w3.org/2000/svg"
 width="700.000000pt" height="700.000000pt" viewBox="0 0 700.000000 700.000000"
 preserveAspectRatio="xMidYMid meet">
<metadata>
Created by potrace 1.14, written by Peter Selinger 2001-2017
</metadata>
<g transform="translate(0.000000,700.000000) scale(0.100000,-0.100000)"
fill="#000000" stroke="none">
<path d="M480 6990 c-215 -26 -390 -178 -457 -395 -17 -58 -18 -173 -18 -2960
0 -2787 1 -2902 18 -2960 42 -135 138 -259 250 -324 37 -22 57 -42 71 -70 45
-96 168 -201 292 -249 l69 -27 2890 -3 c2122 -2 2908 0 2958 9 212 35 401 225
437 439 8 46 10 903 8 2955 l-3 2890 -26 67 c-51 130 -136 231 -253 297 -36
21 -58 42 -67 63 -18 43 -119 150 -179 188 -27 18 -82 44 -122 58 l-73 27
-2865 1 c-1576 1 -2894 -2 -2930 -6z m919 -817 c6 -21 193 -774 416 -1673 223
-899 407 -1639 408 -1643 1 -5 186 733 411 1640 225 906 413 1663 418 1681 l9
32 304 0 c280 0 304 -1 309 -17 8 -25 823 -3304 827 -3327 2 -11 188 722 413
1630 225 907 413 1664 418 1682 l9 32 274 0 c214 0 275 -3 275 -12 0 -7 -225
-906 -499 -1998 l-498 -1985 -344 0 -344 0 -415 1707 c-228 939 -417 1709
-420 1712 -3 3 -195 -765 -426 -1707 l-420 -1712 -344 0 -343 0 -499 1990
c-274 1095 -498 1993 -498 1998 0 4 124 7 275 7 l274 0 10 -37z m3081 -5248
l0 -645 -1120 0 -1120 0 0 645 0 645 1120 0 1120 0 0 -645z"/>
</g>
</svg>
